<svg width="16" height="15" viewBox="0 0 16 15" fill="none" xmlns="http://www.w3.org/2000/svg">
<g clip-path="url(#clip0_2004_21)">
<path d="M15.9174 4.32792L13.7319 0.410107C13.6044 0.181826 13.2744 -0.00520508 12.9999 -0.00520508H7.96994C7.96444 -0.00567383 7.95894 -0.00661133 7.95344 -0.00708008C7.94894 -0.00708008 7.94444 -0.00567383 7.93994 -0.00520508H2.99994C2.72494 -0.00520508 2.39444 0.181357 2.26494 0.408701L0.0854386 4.25104C-0.0440614 4.47886 -0.0180614 4.83604 0.141939 5.04604L7.64244 14.8481C7.72294 14.9531 7.82994 15.0065 7.93644 15.0065C8.04244 15.0065 8.14844 14.955 8.22994 14.8514L15.8534 5.12104C16.0159 4.91292 16.0449 4.55667 15.9174 4.32839V4.32792ZM14.7244 4.21308H12.0454L13.1184 1.33308L14.7244 4.21308ZM8.98944 0.932764H12.2074L11.2089 3.61214L8.98944 0.932764ZM10.4409 4.21308H5.79044L7.98844 1.25245L10.4409 4.21308ZM4.90444 3.76589L3.90144 0.932764H7.00794L4.90444 3.76589ZM10.6364 5.15058L7.94844 12.3656L5.39444 5.15058H10.6364ZM6.82694 12.1739L1.45294 5.15058H4.34094L6.82694 12.1739ZM11.6959 5.15058H14.5894L9.07444 12.1903L11.6959 5.15058ZM2.94494 1.20698L4.00894 4.21308H1.23944L2.94494 1.20698Z" fill="#681292"/>
</g>
<defs>
<clipPath id="clip0_2004_21">
<rect width="16" height="15" fill="white"/>
</clipPath>
</defs>
</svg>
