<svg width="17" height="17" viewBox="0 0 17 17" fill="none" xmlns="http://www.w3.org/2000/svg">
<g clip-path="url(#clip0_2002_2838)">
<path d="M15.0728 4.53338L8.31527 11.2908C7.64236 11.9638 5.64484 12.2754 5.19859 11.8292C4.75234 11.3829 5.05692 9.38543 5.72984 8.71251L12.4944 1.94794C12.6613 1.76594 12.8632 1.61964 13.0882 1.51786C13.3131 1.41607 13.5563 1.36089 13.8032 1.35569C14.0499 1.3505 14.2953 1.39536 14.5243 1.4876C14.7533 1.57983 14.9613 1.71753 15.1356 1.89234C15.3099 2.06716 15.4471 2.27548 15.5386 2.50474C15.6302 2.73401 15.6745 2.97944 15.6686 3.22626C15.6627 3.47308 15.6069 3.71618 15.5045 3.94082C15.4021 4.16547 15.2552 4.36706 15.0728 4.53338Z" stroke="#8FCB9B" stroke-linecap="round" stroke-linejoin="round"/>
<path d="M7.79199 2.83331H4.25033C3.49888 2.83331 2.77825 3.13182 2.2469 3.66317C1.71555 4.19453 1.41699 4.9152 1.41699 5.66665V12.75C1.41699 13.5015 1.71555 14.2221 2.2469 14.7534C2.77825 15.2848 3.49888 15.5833 4.25033 15.5833H12.042C13.6074 15.5833 14.167 14.3083 14.167 12.75V9.20831" stroke="#8FCB9B" stroke-linecap="round" stroke-linejoin="round"/>
</g>
<defs>
<clipPath id="clip0_2002_2838">
<rect width="17" height="17" fill="white"/>
</clipPath>
</defs>
</svg>
